<?xml version="1.0" encoding="UTF-8"?>
<!DOCTYPE svg PUBLIC "-//W3C//DTD SVG 1.1//EN" "http://www.w3.org/Graphics/SVG/1.1/DTD/svg11.dtd">
<svg xmlns="http://www.w3.org/2000/svg" xmlns:xlink="http://www.w3.org/1999/xlink" width="512" height="512" viewBox="0 0 512 512">
  <defs>
    <linearGradient id="bg" x1="0%" y1="0%" x2="100%" y2="100%">
      <stop offset="0%" style="stop-color:#667eea;stop-opacity:1" />
      <stop offset="100%" style="stop-color:#764ba2;stop-opacity:1" />
    </linearGradient>
  </defs>
  <rect width="512" height="512" rx="96" fill="url(#bg)"/>
  <g fill="#ffffff">
    <rect x="120" y="140" width="272" height="180" rx="20" opacity="0.95"/>
    <rect x="140" y="160" width="100" height="70" rx="8" fill="#667eea" opacity="0.6"/>
    <rect x="250" y="160" width="122" height="32" rx="4" fill="#ffffff" opacity="0.4"/>
    <rect x="250" y="200" width="90" height="24" rx="4" fill="#ffffff" opacity="0.3"/>
    <rect x="250" y="232" width="110" height="24" rx="4" fill="#ffffff" opacity="0.3"/>
    <rect x="140" y="240" width="100" height="60" rx="8" fill="#764ba2" opacity="0.5"/>
    <polygon points="256,220 296,270 256,320 216,270" opacity="0.9"/>
    <circle cx="256" cy="270" r="20" fill="#ffffff"/>
  </g>
  <g fill="none" stroke="#ffffff" stroke-width="8" stroke-linecap="round">
    <path d="M 80 380 L 140 320" opacity="0.6"/>
    <path d="M 432 380 L 372 320" opacity="0.6"/>
    <path d="M 80 420 L 160 340" opacity="0.4"/>
    <path d="M 432 420 L 352 340" opacity="0.4"/>
  </g>
</svg>
